<svg xmlns="http://www.w3.org/2000/svg" width="512" height="512" viewBox="0 0 180.622 180.622">
  <path fill="#d0d2d6" d="M0 180.622h180.622V0H0z"/>
  <g transform="matrix(.24204 0 0 -.24204 -8.92 151.267)">
    <path fill="#f69e1d" d="M92.48 118.48c-5.523 0-10 4.48-10 10v57.6c0 5.522 4.477 10 10 10H305.6c.287 0 .48.02.593.042.305.464 1.407 2.556 1.407 8.437 0 5.88-1.104 7.97-1.41 8.44-.113.02-.304.04-.59.04H150.56c-23.395 0-43.046 8.9-58.406 26.45-14.364 16.16-21.674 36.16-21.674 59.39 0 23.19 7.45 43.49 22.145 60.33 15.04 17.244 34.533 25.987 57.935 25.987h213.12c5.523 0 10-4.48 10-10v-57.6c0-5.528-4.477-10-10-10H150.103c-.275 0-.46-.02-.57-.04-.313-.47-1.453-2.61-1.453-8.68 0-5.71 1.072-7.747 1.365-8.19.12-.027.332-.05.658-.05h155.355c23.42 0 43.1-8.87 58.492-26.36l.105-.12c14.03-16.477 21.145-36.53 21.145-59.6 0-23.088-7.1-43.14-21.103-59.6l-.1-.115c-15.355-17.5-35.002-26.37-58.397-26.37z"/>
    <path d="M363.68 395.2H150.56c-13.028 0-25.185-2.485-36.134-7.387-11.022-4.934-20.892-12.344-29.338-22.026C68.76 347.07 60.48 324.557 60.48 298.88c0-25.722 8.14-47.936 24.197-66.026 11.818-13.487 25.878-22.44 41.992-26.774H92.48c-11.046 0-20-8.954-20-20v-57.6c0-11.046 8.954-20 20-20H305.6c26.4 0 48.576 10.018 65.913 29.774.067.076.134.154.2.232 15.585 18.32 23.487 40.55 23.487 66.073 0 25.51-7.917 47.75-23.533 66.08l-.21.24c-11.837 13.45-25.92 22.382-42.047 26.71h34.27c11.046 0 20 8.953 20 20v57.6c0 11.045-8.954 20-20 20m0-20v-57.6H150.102c-8.017 0-12.022-6.24-12.022-18.72 0-12.166 4.005-18.24 12.022-18.24h155.355c20.52 0 37.515-7.66 50.985-22.966 12.503-14.678 18.758-32.385 18.758-53.116 0-20.738-6.24-38.445-18.72-53.115-13.44-15.315-30.405-22.965-50.88-22.965H92.48v57.6H305.6c7.995 0 12 6.16 12 18.48 0 12.317-4.005 18.48-12 18.48H150.56c-20.483 0-37.44 7.68-50.88 23.04-12.803 14.4-19.2 31.997-19.2 52.8 0 20.8 6.555 38.717 19.68 53.76 13.117 15.04 29.917 22.56 50.4 22.56h213.12"/>
    <path fill="#5495d0" d="M681.867 118.48c-5.522 0-10 4.48-10 10v118.58l-84.534-120.48c-1.87-2.67-4.927-4.258-8.186-4.258-3.26 0-6.314 1.59-8.185 4.258l-84.534 120.48V128.48c0-5.52-4.478-10-10-10h-57.6c-5.523 0-10 4.48-10 10V375.2c0 5.524 4.477 10 10 10h60.48c3.262 0 6.32-1.59 8.19-4.263l91.67-130.893 92.122 130.912c1.872 2.66 4.923 4.245 8.178 4.245h60c5.522 0 10-4.47 10-10V128.48c0-5.52-4.478-10-10-10z"/>
    <path d="M739.468 395.2h-60c-6.51 0-12.61-3.167-16.356-8.49l-83.925-119.262-83.497 119.225c-3.743 5.344-9.858 8.527-16.382 8.527h-60.48c-11.046 0-20-8.954-20-20V128.48c0-11.046 8.954-20 20-20h57.6c11.046 0 20 8.954 20 20v86.914l66.348-94.56c3.744-5.337 9.853-8.514 16.372-8.514 6.518 0 12.628 3.177 16.372 8.513l66.347 94.56V128.48c0-11.046 8.955-20 20-20h57.6c11.047 0 20 8.954 20 20V375.2c0 11.046-8.953 20-20 20m0-20V128.48h-57.6v150.24l-102.72-146.4-102.72 146.4V128.48h-57.6V375.2h60.48l99.84-142.56 100.32 142.56h60"/>
  </g>
</svg>
