<?xml version="1.0" encoding="UTF-8"?>
<svg width="75.949" height="66.88" version="1.1" viewBox="0 0 75.948677 66.879997" xml:space="preserve" xmlns="http://www.w3.org/2000/svg"><path d="m68.186 0.51007h-30.708c-7.52 0.1675-16.879 0.37375-23.27 6.0662-4.5712 4.045-5.9025 9.39-8.32 19.092l-0.00375 0.015-0.00375 0.01625-3.6488 15.018-0.0225 0.10125-0.02125 0.10125c-0.58875 2.8662-1.01 5.785-1.26 7.73-0.53375 4.1462-0.45875 4.7125-0.3875 5.2625 0.425 3.2088 2.3638 8.9275 10.591 11.291 4.13 1.1862 8.6025 1.1862 11.56 1.1862h38.29l0.96875-4.5575 2.4125-11.355 1.4788-6.9625-7.115 0.0125-18.928 0.035h-5.3338c1.2888-6.775 2.825-13.035 4.9538-20.228h0.59l-1.4312 6.2412h30.062l1.0388-4.4412 4.1062-17.56 1.6538-7.065h-7.2525z" fill="#00386b"/><path d="m12.14 61.885c3.6638 1.0525 7.8438 1.0525 10.61 1.0525h35.49l0.3875-1.8212 2.4162-11.356 0.5925-2.785-2.8462 0.0037-18.928 0.0375h-9.4712c1.6012-9.35 3.5138-17.292 6.5188-27.134h7.4875l-0.78625 3.4275-0.64625 2.8138h22.993l0.41625-1.775 4.1075-17.56 0.66125-2.8262h-33.532c-6.96 0.15375-15.624 0.345-21.066 5.2062-3.7638 3.33-4.9288 8.0112-7.25 17.332l-0.00125 0.0075v5e-3l-3.6512 15.019-0.01 0.03875-0.00875 0.0425c-0.89375 4.3538-1.7312 10.879-1.605 11.85 0.3825 2.8912 2.1012 6.6912 8.1225 8.4212" fill="#fff"/><path d="m11.534 27.064-3.6516 15.016c-0.99375 4.8488-1.5788 10.421-1.5788 11.044 0 0.02 0.00125 0.03625 0.00125 0.045 0.97875 7.3925 10.809 7.4712 16.451 7.4712h33.628l2.415-11.355-18.926 0.035h-12.191c1.7962-11.166 3.8975-20.029 7.5362-31.735h12.074l-0.515 2.2438-0.01375 0.0575-0.90375 3.9412h18.28l4.1075-17.56h-30.58c-7.0862 0.1575-14.84 0.385-19.585 4.6212-3.1312 2.7712-4.19 6.6962-6.5488 16.175" fill="#e0aa0f"/></svg>
